<?xml version="1.0" encoding="UTF-8" standalone="no"?>
<!-- Created with Inkscape (http://www.inkscape.org/) -->

<svg
   xmlns:dc="http://purl.org/dc/elements/1.1/"
   xmlns:cc="http://creativecommons.org/ns#"
   xmlns:rdf="http://www.w3.org/1999/02/22-rdf-syntax-ns#"
   xmlns:svg="http://www.w3.org/2000/svg"
   xmlns="http://www.w3.org/2000/svg"
   xmlns:sodipodi="http://sodipodi.sourceforge.net/DTD/sodipodi-0.dtd"
   xmlns:inkscape="http://www.inkscape.org/namespaces/inkscape"
   width="20"
   height="20"
   viewBox="0 0 5.2916667 5.2916667"
   version="1.1"
   id="svg8"
   inkscape:version="0.92.3 (2405546, 2018-03-11)"
   sodipodi:docname="icon.svg"
   inkscape:export-filename="/home/maljuburi/Desktop/favicon.png"
   inkscape:export-xdpi="47.346771"
   inkscape:export-ydpi="47.346771">
  <defs
     id="defs2" />
  <sodipodi:namedview
     id="base"
     pagecolor="#ffffff"
     bordercolor="#666666"
     borderopacity="1.0"
     inkscape:pageopacity="0.0"
     inkscape:pageshadow="2"
     inkscape:zoom="28.535637"
     inkscape:cx="8.1306038"
     inkscape:cy="6.8261633"
     inkscape:document-units="mm"
     inkscape:current-layer="layer1"
     showgrid="false"
     inkscape:snap-page="false"
     inkscape:window-width="1871"
     inkscape:window-height="1016"
     inkscape:window-x="49"
     inkscape:window-y="27"
     inkscape:window-maximized="1"
     units="px"
     width="516px" />
  <metadata
     id="metadata5">
    <rdf:RDF>
      <cc:Work
         rdf:about="">
        <dc:format>image/svg+xml</dc:format>
        <dc:type
           rdf:resource="http://purl.org/dc/dcmitype/StillImage" />
        <dc:title></dc:title>
      </cc:Work>
    </rdf:RDF>
  </metadata>
  <g
     inkscape:label="Layer 1"
     inkscape:groupmode="layer"
     id="layer1"
     transform="translate(0,-291.70833)">
    <path
       inkscape:connector-curvature="0"
       id="rect4538"
       d="m 65.325211,31.887459 c -2.769994,0 -5.000212,2.230217 -5.000212,5.000212 v 64.612079 c 0,2.76999 2.230218,5.00021 5.000212,5.00021 h 64.612079 c 2.76999,0 5.00021,-2.23022 5.00021,-5.00021 V 36.887671 c 0,-2.769995 -2.23022,-5.000212 -5.00021,-5.000212 z m 29.618347,24.235729 c 1.857963,0 3.551603,0.317397 5.080312,0.952397 1.54046,0.635 2.85756,1.529083 3.95118,2.681491 1.0936,1.140648 1.94017,2.504755 2.53989,4.092255 0.59972,1.575742 0.89969,3.310059 0.89969,5.203301 0,1.89324 -0.29997,3.63337 -0.89969,5.22087 -0.59972,1.575739 -1.44629,2.934038 -2.53989,4.074686 -1.09362,1.140648 -2.41072,2.028404 -3.95118,2.663404 -1.528709,0.623242 -3.222349,0.934826 -5.080312,0.934826 -1.857962,0 -3.551089,-0.311584 -5.079793,-0.934826 -1.528704,-0.635 -2.840001,-1.522756 -3.933611,-2.663404 -1.09361,-1.140648 -1.940173,-2.498947 -2.539897,-4.074686 -0.59972,-1.5875 -0.899686,-3.32763 -0.899686,-5.22087 0,-1.893242 0.299966,-3.627559 0.899686,-5.203301 0.599724,-1.5875 1.446287,-2.951607 2.539897,-4.092255 1.09361,-1.152408 2.404907,-2.046491 3.933611,-2.681491 1.528704,-0.635 3.221831,-0.952397 5.079793,-0.952397 z M 67.11063,56.405343 h 3.404444 v 22.401733 h 10.936285 v 2.874759 H 67.11063 Z m 45.19983,0 h 15.57527 v 2.786909 h -12.15326 v 8.396385 h 9.84229 v 2.680975 h -9.84229 v 8.625314 h 12.17083 l -0.0181,2.786909 h -15.57475 z m -17.366902,2.681488 c -1.352314,0 -2.580708,0.229204 -3.686079,0.687814 -1.105371,0.458613 -2.052267,1.117163 -2.840138,1.975591 -0.776111,0.846666 -1.375524,1.88705 -1.798857,3.121773 -0.423334,1.234721 -0.635104,2.6284 -0.635104,4.180623 0,1.552221 0.21177,2.9459 0.635104,4.180623 0.423333,1.222965 1.022746,2.263349 1.798857,3.121774 0.787871,0.846667 1.734767,1.499407 2.840138,1.95802 1.105371,0.446852 2.333765,0.670242 3.686079,0.670242 1.364076,0 2.598799,-0.22339 3.704167,-0.670242 1.105374,-0.458613 2.046455,-1.111353 2.822565,-1.95802 0.77611,-0.858425 1.37552,-1.898809 1.79886,-3.121774 0.42333,-1.234723 0.6351,-2.628402 0.6351,-4.180623 0,-1.552223 -0.21177,-2.945902 -0.6351,-4.180623 -0.42334,-1.234723 -1.02275,-2.275107 -1.79886,-3.121773 -0.77611,-0.858428 -1.717191,-1.516978 -2.822565,-1.975591 -1.105368,-0.45861 -2.340091,-0.687814 -3.704167,-0.687814 z"
       style="fill:#a0a5aa;fill-opacity:1;stroke-width:0.26458332" />
    <path
       inkscape:connector-curvature="0"
       id="rect4538-3"
       d="m -15.878366,281.70152 c -0.262968,0 -0.474692,0.21172 -0.474692,0.47469 v 6.13392 c 0,0.26297 0.211724,0.47469 0.474692,0.47469 h 6.1339085 c 0.262968,0 0.474693,-0.21172 0.474693,-0.47469 v -6.13392 c 0,-0.26297 -0.211725,-0.47469 -0.474693,-0.47469 z m 2.811801,2.30083 c 0.176384,0 0.337169,0.0301 0.482296,0.0903 0.146243,0.0603 0.271281,0.14515 0.375103,0.25456 0.103821,0.10826 0.184189,0.23778 0.241124,0.3885 0.05693,0.14961 0.08541,0.31424 0.08541,0.49396 0,0.17974 -0.02848,0.34494 -0.08541,0.49565 -0.05693,0.14963 -0.137302,0.27854 -0.241124,0.38682 -0.103824,0.10839 -0.22886,0.19258 -0.375103,0.25284 -0.145127,0.0591 -0.305911,0.0887 -0.482296,0.0887 -0.176384,0 -0.33712,-0.0296 -0.482247,-0.0887 -0.145127,-0.0602 -0.269614,-0.1446 -0.373435,-0.25284 -0.103822,-0.10825 -0.184189,-0.23723 -0.241124,-0.38682 -0.05693,-0.15067 -0.08541,-0.31591 -0.08541,-0.49565 0,-0.17972 0.02848,-0.34437 0.08541,-0.49396 0.05693,-0.1507 0.137304,-0.2802 0.241124,-0.3885 0.103819,-0.10946 0.228308,-0.19427 0.373435,-0.25456 0.145127,-0.0603 0.305863,-0.0903 0.482247,-0.0903 z m -2.642303,0.0267 h 0.323198 v 2.12668 h 1.038231 v 0.27292 h -1.361429 z m 4.291019,0 h 1.4786285 v 0.26456 h -1.1537615 v 0.79711 h 0.934372 v 0.25449 h -0.934372 v 0.81889 h 1.1554295 l -0.0018,0.26455 h -1.4785515 z m -1.648716,0.25454 c -0.12838,0 -0.244998,0.0217 -0.349936,0.0653 -0.104938,0.0437 -0.19483,0.10596 -0.269627,0.18755 -0.07368,0.0803 -0.130585,0.17916 -0.170772,0.29637 -0.04019,0.11717 -0.0603,0.24952 -0.0603,0.39688 0,0.14727 0.02011,0.27966 0.0603,0.39689 0.04019,0.11594 0.09709,0.21486 0.170772,0.29637 0.0748,0.0803 0.16469,0.14229 0.269627,0.18588 0.104939,0.0425 0.221555,0.0636 0.349936,0.0636 0.129497,0 0.246715,-0.0212 0.351653,-0.0636 0.104938,-0.0437 0.194279,-0.10556 0.267959,-0.18588 0.07368,-0.0814 0.130585,-0.18028 0.170772,-0.29637 0.04019,-0.1173 0.06029,-0.24954 0.06029,-0.39689 0,-0.1473 -0.02011,-0.27966 -0.06029,-0.39688 -0.04019,-0.11716 -0.09709,-0.216 -0.170772,-0.29637 -0.07368,-0.0814 -0.163021,-0.14407 -0.267959,-0.18755 -0.104938,-0.0437 -0.222156,-0.0653 -0.351653,-0.0653 z"
       style="fill:#262d31;fill-opacity:1;stroke-width:0.02511808" />
    <rect
       id="rect4538-0"
       width="74.612503"
       height="74.612503"
       x="-92.339584"
       y="21.304163"
       rx="4.99999"
       ry="4.99999"
       style="fill:#a0a5aa;fill-opacity:1;stroke-width:0.26458332" />
    <flowRoot
       xml:space="preserve"
       id="flowRoot4540-8"
       style="font-style:normal;font-weight:normal;font-size:136px;line-height:1.25;font-family:sans-serif;letter-spacing:0px;word-spacing:0px;fill:#23282d;fill-opacity:1;stroke:none"
       transform="matrix(0.26458333,0,0,0.26458333,-147.92716,-4.444962)"><flowRegion
         id="flowRegion4542-1"
         style="font-size:136px;fill:#23282d;fill-opacity:1"><rect
           id="rect4544-3"
           width="317"
           height="199"
           x="189"
           y="161.51968"
           style="font-size:136px;fill:#23282d;fill-opacity:1" /></flowRegion><flowPara
         id="flowPara4546-1"
         style="font-style:normal;font-variant:normal;font-weight:normal;font-stretch:normal;font-size:133.33332825px;font-family:Lato;-inkscape-font-specification:Lato;text-align:center;text-anchor:middle;fill:#23282d;fill-opacity:1">LOE</flowPara></flowRoot>    <path
       style="fill:#5e9fc4;fill-opacity:1;stroke-width:0.01748359"
       d="m -5.4611765,286.44016 c -0.1830403,0 -0.3308624,0.14733 -0.3308624,0.33037 v 4.26962 c 0,0.18304 0.1478221,0.33036 0.3308624,0.33036 h 4.2691274 c 0.1830402,0 0.3308623,-0.14732 0.3308623,-0.33036 v -4.26962 c 0,-0.18304 -0.1478221,-0.33037 -0.3308623,-0.33037 z m 1.994699,1.55304 c 0.1369212,0 0.2616502,0.0235 0.3739747,0.0702 0.1123246,0.0459 0.208221,0.11002 0.2877501,0.192 0.080349,0.0812 0.1425309,0.17723 0.1859846,0.28875 0.044274,0.11069 0.066173,0.2309 0.066173,0.36046 0,0.13034 -0.021899,0.25142 -0.066173,0.36292 -0.043453,0.1115 -0.1056354,0.20759 -0.1859846,0.28876 -0.07953,0.0811 -0.1754255,0.14526 -0.2877501,0.192 -0.1123245,0.0459 -0.2370535,0.0687 -0.3739747,0.0687 -0.1369211,0 -0.2611488,-0.0227 -0.3734735,-0.0687 -0.1123246,-0.0467 -0.2089048,-0.11082 -0.2892538,-0.192 -0.08035,-0.0812 -0.1427134,-0.17726 -0.1869875,-0.28876 -0.043453,-0.1115 -0.065169,-0.23258 -0.065169,-0.36292 0,-0.13039 0.021716,-0.25078 0.065169,-0.36146 0.044274,-0.11151 0.1066382,-0.20809 0.1869875,-0.28926 0.080348,-0.0811 0.1769292,-0.14458 0.2892538,-0.19049 0.1123247,-0.0467 0.2365524,-0.0702 0.3734735,-0.0702 z m -2.0398167,0.0196 h 0.3684604 v 1.48437 h 0.6902993 v 0.30029 h -1.0587597 z m 3.2234017,0 h 1.1364623 v 0.28926 h -0.7649942 v 0.45869 h 0.595051 v 0.27922 h -0.595051 v 0.46873 h 0.7649942 v 0.28876 h -1.1364623 z m -1.183585,0.29025 c -0.083629,0 -0.1581744,0.0142 -0.2245853,0.0421 -0.066411,0.0271 -0.1232094,0.0668 -0.1699429,0.11932 -0.045914,0.0516 -0.081178,0.11487 -0.1057761,0.18949 -0.024597,0.0738 -0.037097,0.15718 -0.037097,0.25065 0,0.0943 0.0125,0.17855 0.037097,0.25316 0.024597,0.0738 0.059863,0.13684 0.1057761,0.18849 0.046734,0.0516 0.1035325,0.0914 0.1699429,0.11931 0.066411,0.027 0.1409569,0.0405 0.2245853,0.0405 0.083628,0 0.1584932,-0.0136 0.2240842,-0.0405 0.066411,-0.0279 0.1225253,-0.0677 0.168439,-0.11931 0.046734,-0.0516 0.082182,-0.1147 0.1067789,-0.18849 0.024597,-0.0746 0.037097,-0.15888 0.037097,-0.25316 0,-0.0934 -0.0125,-0.17686 -0.037097,-0.25065 -0.024597,-0.0747 -0.060045,-0.13784 -0.1067789,-0.18949 -0.045914,-0.0525 -0.1020278,-0.0923 -0.168439,-0.11932 -0.065592,-0.0279 -0.1404557,-0.0421 -0.2240842,-0.0421 z"
       id="rect4538-0-1"
       inkscape:connector-curvature="0"
       inkscape:export-xdpi="96"
       inkscape:export-ydpi="96" />
    <g
       aria-label="LOE"
       transform="matrix(0.01901629,0,0,0.01901629,-3.996734,289.8378)"
       style="font-style:normal;font-weight:normal;font-size:136px;line-height:1.25;font-family:sans-serif;letter-spacing:0px;word-spacing:0px;fill:#23282d;fill-opacity:1;stroke:none"
       id="flowRoot4540-8-4" />
    <rect
       id="rect4538-0-1-9"
       width="5.0823946"
       height="5.0823946"
       x="-6.857213"
       y="292.05273"
       rx="0.34058532"
       ry="0.34058532"
       style="fill:#a0a5aa;fill-opacity:1;stroke-width:0.01802268" />
    <flowRoot
       xml:space="preserve"
       id="flowRoot4540-8-4-6"
       style="font-style:normal;font-weight:normal;font-size:136px;line-height:1.25;font-family:sans-serif;letter-spacing:0px;word-spacing:0px;fill:#23282d;fill-opacity:1;stroke:none"
       transform="matrix(0.01901629,0,0,0.01901629,-10.974609,290.08418)"><flowRegion
         id="flowRegion4542-1-0-9"
         style="font-size:136px;fill:#23282d;fill-opacity:1"><rect
           id="rect4544-3-3-3"
           width="317"
           height="199"
           x="189"
           y="161.51968"
           style="font-size:136px;fill:#23282d;fill-opacity:1" /></flowRegion><flowPara
         id="flowPara4546-1-9-3"
         style="font-style:normal;font-variant:normal;font-weight:800;font-stretch:normal;font-size:133.33332825px;font-family:Lato;-inkscape-font-specification:'Lato Ultra-Bold';text-align:center;text-anchor:middle;fill:#23282d;fill-opacity:1">LOE</flowPara></flowRoot>    <g
       aria-label="LOE"
       transform="matrix(0.01901629,0,0,0.01901629,1.2220052,289.31834)"
       style="font-style:normal;font-weight:normal;font-size:148.4107666px;line-height:1.25;font-family:sans-serif;text-align:center;letter-spacing:0px;word-spacing:0px;text-anchor:middle;fill:#1a1a1a;fill-opacity:1;stroke:none"
       id="flowRoot4540-8-4-6-8">
      <path
         d="M 256.40078,248.51904 H 298.03 v 18.10611 H 234.13916 V 158.95314 h 22.26162 z"
         style="font-style:normal;font-variant:normal;font-weight:800;font-stretch:normal;font-size:148.4107666px;line-height:0;font-family:Lato;-inkscape-font-specification:'Lato Ultra-Bold';text-align:center;letter-spacing:-5.56540394px;word-spacing:0px;text-anchor:middle;fill:#1a1a1a;fill-opacity:1"
         id="path4974"
         inkscape:connector-curvature="0" />
      <path
         d="m 406.81509,212.75204 q 0,11.79866 -4.00709,21.89059 -3.93289,10.09193 -11.20502,17.43827 -7.19792,7.34633 -17.36406,11.57604 -10.16613,4.1555 -22.55843,4.1555 -12.3923,0 -22.55844,-4.1555 -10.16614,-4.22971 -17.43826,-11.57604 -7.27213,-7.34634 -11.27922,-17.43827 -3.93289,-10.09193 -3.93289,-21.89059 0,-11.79865 3.93289,-21.81638 4.00709,-10.09193 11.27922,-17.43827 7.27212,-7.34633 17.43826,-11.50183 10.16614,-4.22971 22.55844,-4.22971 12.3923,0 22.55843,4.22971 10.16614,4.1555 17.36406,11.57604 7.27213,7.34633 11.20502,17.43827 4.00709,10.01772 4.00709,21.74217 z m -22.78106,0 q 0,-8.45941 -2.22616,-15.1379 -2.22616,-6.75269 -6.45587,-11.42762 -4.1555,-4.74915 -10.16613,-7.19793 -5.93643,-2.52298 -13.50538,-2.52298 -7.56895,0 -13.57959,2.52298 -6.01063,2.44878 -10.24034,7.19793 -4.1555,4.67493 -6.38166,11.42762 -2.22616,6.67849 -2.22616,15.1379 0,8.53362 2.22616,15.28631 2.22616,6.67849 6.38166,11.35343 4.22971,4.67493 10.24034,7.19792 6.01064,2.44878 13.57959,2.44878 7.56895,0 13.50538,-2.44878 6.01063,-2.52299 10.16613,-7.19792 4.22971,-4.67494 6.45587,-11.35343 2.22616,-6.75269 2.22616,-15.28631 z"
         style="font-style:normal;font-variant:normal;font-weight:800;font-stretch:normal;font-size:148.4107666px;line-height:0;font-family:Lato;-inkscape-font-specification:'Lato Ultra-Bold';text-align:center;letter-spacing:-5.56540394px;word-spacing:0px;text-anchor:middle;fill:#1a1a1a;fill-opacity:1"
         id="path4976"
         inkscape:connector-curvature="0" />
      <path
         d="m 486.07339,158.95314 v 17.43826 h -46.15575 v 27.67861 h 35.91541 v 16.84462 h -35.91541 v 28.27226 h 46.15575 v 17.43826 H 417.50762 V 158.95314 Z"
         style="font-style:normal;font-variant:normal;font-weight:800;font-stretch:normal;font-size:148.4107666px;line-height:0;font-family:Lato;-inkscape-font-specification:'Lato Ultra-Bold';text-align:center;letter-spacing:-5.56540394px;word-spacing:0px;text-anchor:middle;fill:#1a1a1a;fill-opacity:1"
         id="path4978"
         inkscape:connector-curvature="0" />
    </g>
    <path
       style="fill:#e63232;fill-opacity:1;stroke-width:0.33327323"
       d="m 7.2888073,294.68589 a 1.7177549,1.7177549 0 0 0 -1.7177247,1.71773 1.7177549,1.7177549 0 0 0 1.7177247,1.71772 1.7177549,1.7177549 0 0 0 1.7177245,-1.71772 1.7177549,1.7177549 0 0 0 -1.7177245,-1.71773 z m -0.151412,0.59273 h 1.0082072 v 0.18139 H 7.3534027 v 0.47232 h 0.7591269 v 0.18138 H 7.3534027 v 0.57826 h 0.8113201 v 0.18139 H 7.1373953 Z"
       id="path5000-6-4"
       inkscape:export-xdpi="2535.5222"
       inkscape:export-ydpi="2535.5222"
       inkscape:connector-curvature="0" />
    <path
       style="fill:#00f13d;fill-opacity:1;stroke-width:0.28400102"
       d="m 6.0107679,288.59654 a 1.4637965,1.4637965 0 0 0 -1.4636515,1.46365 1.4637965,1.4637965 0 0 0 1.4636515,1.46365 1.4637965,1.4637965 0 0 0 1.4636515,-1.46365 1.4637965,1.4637965 0 0 0 -1.4636515,-1.46365 z m 0.3260609,0.53842 c 0.1788328,0 0.3215451,0.0599 0.428617,0.18003 0.1070717,0.1196 0.1605223,0.27995 0.1605223,0.48156 0,0.20105 -0.053451,0.36196 -0.1605223,0.48213 -0.1070719,0.1196 -0.2497842,0.17947 -0.428617,0.17947 -0.1794023,0 -0.323205,-0.0599 -0.4308463,-0.17947 -0.1070719,-0.1196 -0.1605223,-0.28051 -0.1605223,-0.48213 0,-0.20161 0.05345,-0.36196 0.1605223,-0.48156 0.1076413,-0.12018 0.251444,-0.18003 0.4308463,-0.18003 z m 0,0.1399 c -0.1252968,0 -0.2252681,0.0465 -0.2993072,0.1399 -0.073469,0.0934 -0.1098017,0.22062 -0.1098017,0.38179 0,0.16061 0.036332,0.28784 0.1098017,0.38124 0.074039,0.0934 0.1740104,0.1399 0.2993072,0.1399 0.1252969,0 0.2241778,-0.0465 0.2970778,-0.1399 0.07347,-0.0934 0.1103591,-0.22063 0.1103591,-0.38124 0,-0.16117 -0.03689,-0.28839 -0.1103591,-0.38179 -0.0729,-0.0934 -0.1717809,-0.1399 -0.2970778,-0.1399 z"
       id="path5000-6"
       inkscape:connector-curvature="0"
       inkscape:export-xdpi="2535.5222"
       inkscape:export-ydpi="2535.5222" />
    <path
       style="fill:#0094f9;fill-opacity:1;stroke-width:0.2276943"
       d="m 2.783983,288.59238 a 1.1735805,1.1735805 0 0 0 -1.1740885,1.17358 1.1735805,1.1735805 0 0 0 1.1740885,1.17357 1.1735805,1.1735805 0 0 0 1.1735718,-1.17357 1.1735805,1.1735805 0 0 0 -1.1735718,-1.17358 z m -0.3710367,0.49145 h 0.1710489 v 1.12241 h 0.6170167 v 0.14418 H 2.4129463 Z"
       id="path5000"
       inkscape:export-xdpi="2535.5222"
       inkscape:export-ydpi="2535.5222"
       inkscape:connector-curvature="0" />
    <circle
       style="fill:#ff5555;fill-opacity:1;stroke-width:0.26042756"
       id="path5141"
       cx="3.5233719"
       cy="293.47665"
       r="1.7431418"
       inkscape:export-xdpi="2487.7429"
       inkscape:export-ydpi="2487.7429" />
    <g
       aria-label="L"
       style="font-style:normal;font-weight:normal;font-size:1.73776817px;line-height:1.25;font-family:sans-serif;letter-spacing:0px;word-spacing:0px;fill:#000000;fill-opacity:1;stroke:none;stroke-width:0.04344421"
       id="text5034"
       inkscape:export-xdpi="2535.5222"
       inkscape:export-ydpi="2535.5222" />
    <g
       aria-label="O"
       style="font-style:normal;font-weight:normal;font-size:1.62213993px;line-height:1.25;font-family:sans-serif;letter-spacing:0px;word-spacing:0px;fill:#000000;fill-opacity:1;stroke:none;stroke-width:0.0405535"
       id="text5034-0"
       inkscape:export-xdpi="2535.5222"
       inkscape:export-ydpi="2535.5222" />
    <g
       aria-label="E"
       style="font-style:normal;font-weight:normal;font-size:2.18744445px;line-height:1.25;font-family:sans-serif;letter-spacing:0px;word-spacing:0px;fill:#000000;fill-opacity:1;stroke:none;stroke-width:0.05468612"
       id="text5034-0-4"
       inkscape:export-xdpi="2535.5222"
       inkscape:export-ydpi="2535.5222" />
    <circle
       style="fill:#00f13d;fill-opacity:1;stroke-width:0.26799729"
       id="path5143"
       cx="1.7987739"
       cy="294.2648"
       r="1.4557091"
       inkscape:export-xdpi="2487.7429"
       inkscape:export-ydpi="2487.7429" />
    <circle
       style="fill:#1f89ff;fill-opacity:1;stroke-width:0.25990042"
       id="path5145"
       cx="1.0570117"
       cy="295.95224"
       r="1.0291957"
       inkscape:export-xdpi="2487.7429"
       inkscape:export-ydpi="2487.7429" />
    <g
       aria-label="L"
       style="font-style:normal;font-weight:normal;font-size:1.71220434px;line-height:1.25;font-family:sans-serif;letter-spacing:0px;word-spacing:0px;fill:#000000;fill-opacity:1;stroke:none;stroke-width:0.04280511"
       id="text5149"
       transform="matrix(1.03289,0,0,1.03289,-0.0651733,-9.7222405)"
       inkscape:export-xdpi="2487.7429"
       inkscape:export-ydpi="2487.7429">
      <path
         d="m 1.0241026,296.35056 h 0.4802733 v 0.20889 H 0.76727198 v -1.24221 H 1.0241026 Z"
         style="font-style:normal;font-variant:normal;font-weight:800;font-stretch:normal;font-family:Lato;-inkscape-font-specification:'Lato Ultra-Bold';stroke-width:0.04280511"
         id="path5211"
         inkscape:connector-curvature="0" />
    </g>
    <g
       aria-label="O"
       style="font-style:normal;font-weight:normal;font-size:1.86977088px;line-height:1.25;font-family:sans-serif;letter-spacing:0px;word-spacing:0px;fill:#000000;fill-opacity:1;stroke:none;stroke-width:0.04674427"
       id="text5149-2"
       transform="matrix(1.067335,0,0,1.067335,-0.12515255,-19.913118)"
       inkscape:export-xdpi="2487.7429"
       inkscape:export-ydpi="2487.7429">
      <path
         d="m 2.5603298,294.21681 q 0,0.14865 -0.050484,0.27579 -0.049549,0.12715 -0.1411677,0.2197 -0.090684,0.0925 -0.2187632,0.14584 -0.1280793,0.0524 -0.2842052,0.0524 -0.1561258,0 -0.2842051,-0.0524 -0.1280793,-0.0533 -0.2196981,-0.14584 -0.091619,-0.0926 -0.1421026,-0.2197 -0.049549,-0.12714 -0.049549,-0.27579 0,-0.14865 0.049549,-0.27485 0.050484,-0.12715 0.1421026,-0.2197 0.091619,-0.0926 0.2196981,-0.14491 0.1280793,-0.0533 0.2842051,-0.0533 0.1561259,0 0.2842052,0.0533 0.1280793,0.0523 0.2187632,0.14584 0.091619,0.0926 0.1411677,0.2197 0.050484,0.12621 0.050484,0.27392 z m -0.2870098,0 q 0,-0.10658 -0.028047,-0.19072 -0.028046,-0.0851 -0.081335,-0.14397 -0.052354,-0.0598 -0.1280793,-0.0907 -0.074791,-0.0318 -0.1701492,-0.0318 -0.095358,0 -0.171084,0.0318 -0.075726,0.0308 -0.1290142,0.0907 -0.052354,0.0589 -0.0804,0.14397 -0.028047,0.0841 -0.028047,0.19072 0,0.10751 0.028047,0.19259 0.028047,0.0841 0.0804,0.14304 0.053288,0.0589 0.1290142,0.0907 0.075726,0.0308 0.171084,0.0308 0.095358,0 0.1701492,-0.0308 0.075726,-0.0318 0.1280793,-0.0907 0.053288,-0.0589 0.081335,-0.14304 0.028047,-0.0851 0.028047,-0.19259 z"
         style="font-style:normal;font-variant:normal;font-weight:800;font-stretch:normal;font-family:Lato;-inkscape-font-specification:'Lato Ultra-Bold';stroke-width:0.04674427"
         id="path5214"
         inkscape:connector-curvature="0" />
    </g>
    <g
       aria-label="E"
       transform="matrix(1.1437475,0,0,0.95902913,-0.0493549,-13.939241)"
       style="font-style:normal;font-weight:normal;font-size:2.24601364px;line-height:1.25;font-family:sans-serif;letter-spacing:0px;word-spacing:0px;fill:#000000;fill-opacity:1;stroke:none;stroke-width:0.05615035"
       id="text5149-2-7"
       inkscape:export-xdpi="2487.7429"
       inkscape:export-ydpi="2487.7429">
      <path
         d="m 3.9661609,319.39707 v 0.2639 H 3.2676507 v 0.41889 H 3.811186 v 0.25492 H 3.2676507 v 0.42786 h 0.6985102 v 0.26391 H 2.9285026 v -1.62948 z"
         style="font-style:normal;font-variant:normal;font-weight:800;font-stretch:normal;font-family:Lato;-inkscape-font-specification:'Lato Ultra-Bold';stroke-width:0.05615035"
         id="path5217"
         inkscape:connector-curvature="0" />
    </g>
  </g>
</svg>
